<svg width="32" height="21" viewBox="0 0 32 21" fill="none" xmlns="http://www.w3.org/2000/svg">
<path d="M9.56 17.36C9.10667 17.36 8.65333 17.2733 8.2 17.1C7.74667 16.9267 7.48667 16.6867 7.42 16.38L5.4 7.62L4.48 18.08H0.7L2.38 2.24C2.43333 1.66667 2.67333 1.2 3.1 0.839999C3.52667 0.479999 3.98667 0.279999 4.48 0.239999C5.04 0.186665 5.58667 0.299999 6.12 0.579999C6.66667 0.846666 7.00667 1.28 7.14 1.88L9.56 12.62L11.98 1.88C12.1133 1.32 12.4133 0.906666 12.88 0.64C13.3467 0.373332 13.8533 0.239999 14.4 0.239999C14.9333 0.239999 15.44 0.419999 15.92 0.779999C16.4 1.12667 16.6733 1.61333 16.74 2.24L18.42 18.08H14.64L13.74 7.58L11.7 16.38C11.6333 16.6867 11.3733 16.9267 10.92 17.1C10.4667 17.2733 10.0133 17.36 9.56 17.36ZM26.9905 17.1C26.4705 18.3133 25.7771 19.2267 24.9105 19.84C24.0571 20.4533 23.0571 20.76 21.9105 20.76C21.5371 20.76 21.1905 20.7333 20.8705 20.68C20.3105 20.6 19.8838 20.3667 19.5905 19.98C19.2971 19.5933 19.1838 19.1667 19.2505 18.7C19.3171 18.2733 19.4838 17.92 19.7505 17.64C20.0171 17.3733 20.3771 17.24 20.8305 17.24C20.9638 17.2533 21.0971 17.2667 21.2305 17.28C21.3371 17.3067 21.4971 17.32 21.7105 17.32C22.0438 17.32 22.3438 17.2533 22.6105 17.12C22.8771 17 23.0771 16.82 23.2105 16.58V16.56L19.1305 7.48C18.9971 7.2 18.9305 6.91333 18.9305 6.62C18.9305 6.20667 19.0505 5.84 19.2905 5.52C19.5438 5.18667 19.8638 4.94667 20.2505 4.8C20.5438 4.69333 20.8371 4.64 21.1305 4.64C21.5438 4.64 21.9171 4.74667 22.2505 4.96C22.5838 5.17333 22.8305 5.5 22.9905 5.94L25.2905 12.16L27.4105 5.94C27.5571 5.5 27.7905 5.17333 28.1105 4.96C28.4438 4.74667 28.8171 4.64 29.2305 4.64C29.5238 4.64 29.8171 4.69333 30.1105 4.8C30.4971 4.93333 30.8038 5.16667 31.0305 5.5C31.2571 5.82 31.3705 6.18667 31.3705 6.6C31.3705 6.88 31.3105 7.17333 31.1905 7.48L26.9905 17.1Z" fill="#FFC800"/>
</svg>
