<svg width="35" height="35" viewBox="0 0 35 35" fill="none" xmlns="http://www.w3.org/2000/svg">
<path d="M17.4997 17.4997C15.8955 17.4997 14.5222 16.9285 13.3799 15.7861C12.2375 14.6438 11.6663 13.2705 11.6663 11.6663C11.6663 10.0622 12.2375 8.68891 13.3799 7.54655C14.5222 6.40419 15.8955 5.83301 17.4997 5.83301C19.1038 5.83301 20.4771 6.40419 21.6195 7.54655C22.7618 8.68891 23.333 10.0622 23.333 11.6663C23.333 13.2705 22.7618 14.6438 21.6195 15.7861C20.4771 16.9285 19.1038 17.4997 17.4997 17.4997ZM5.83301 29.1663V25.083C5.83301 24.2566 6.04568 23.4971 6.47103 22.8044C6.89638 22.1117 7.46148 21.583 8.16634 21.2184C9.67329 20.465 11.2045 19.8998 12.7601 19.5231C14.3156 19.1464 15.8955 18.958 17.4997 18.958C19.1038 18.958 20.6837 19.1464 22.2393 19.5231C23.7948 19.8998 25.3261 20.465 26.833 21.2184C27.5379 21.583 28.103 22.1117 28.5283 22.8044C28.9537 23.4971 29.1663 24.2566 29.1663 25.083V29.1663H5.83301ZM8.74967 26.2497H26.2497V25.083C26.2497 24.8156 26.1828 24.5726 26.0492 24.3538C25.9155 24.1351 25.7393 23.965 25.5205 23.8434C24.208 23.1872 22.8834 22.695 21.5465 22.3669C20.2097 22.0387 18.8608 21.8747 17.4997 21.8747C16.1386 21.8747 14.7896 22.0387 13.4528 22.3669C12.116 22.695 10.7913 23.1872 9.47884 23.8434C9.26009 23.965 9.08388 24.1351 8.9502 24.3538C8.81651 24.5726 8.74967 24.8156 8.74967 25.083V26.2497ZM17.4997 14.583C18.3018 14.583 18.9884 14.2974 19.5596 13.7262C20.1308 13.1551 20.4163 12.4684 20.4163 11.6663C20.4163 10.8643 20.1308 10.1776 19.5596 9.60645C18.9884 9.03526 18.3018 8.74967 17.4997 8.74967C16.6976 8.74967 16.011 9.03526 15.4398 9.60645C14.8686 10.1776 14.583 10.8643 14.583 11.6663C14.583 12.4684 14.8686 13.1551 15.4398 13.7262C16.011 14.2974 16.6976 14.583 17.4997 14.583Z" fill="#FFC800"/>
</svg>
