<svg width="90" height="91" viewBox="0 0 90 91" fill="none" xmlns="http://www.w3.org/2000/svg">
<path d="M44.9902 1.09766C69.5669 1.09766 89.4902 21.021 89.4902 45.5977C89.4902 70.1743 69.5669 90.0977 44.9902 90.0977C20.4136 90.0977 0.490234 70.1743 0.490234 45.5977C0.490234 21.021 20.4136 1.09766 44.9902 1.09766Z" stroke="black"/>
<path d="M48.4902 2.59766C72.9832 2.59766 89.4902 24.9291 89.4902 49.5977C89.4902 74.0881 68.1619 89.5977 43.4902 89.5977C31.1698 89.5977 21.0539 85.7208 14.0205 78.8105C6.98839 71.9013 2.99023 61.913 2.99023 49.5977C2.99023 25.0002 23.9339 2.59766 48.4902 2.59766Z" fill="#FFDB69" stroke="black"/>
</svg>
