<svg width="18" height="20" viewBox="0 0 18 20" fill="none" xmlns="http://www.w3.org/2000/svg">
<path d="M7.30615 17.335C7.45244 17.5883 7.66283 17.7987 7.91619 17.945C8.16955 18.0912 8.45694 18.1682 8.74949 18.1682C9.04203 18.1682 9.32943 18.0912 9.58278 17.945C9.83614 17.7987 10.0465 17.5883 10.1928 17.335" stroke="black" stroke-width="2" stroke-linecap="round" stroke-linejoin="round"/>
<path d="M1.46772 12.607C1.35886 12.7263 1.28702 12.8747 1.26094 13.0341C1.23486 13.1934 1.25566 13.357 1.32081 13.5048C1.38597 13.6526 1.49267 13.7782 1.62794 13.8665C1.7632 13.9548 1.92121 14.0018 2.08272 14.002H15.4161C15.5776 14.002 15.7356 13.9551 15.8709 13.867C16.0063 13.7789 16.1131 13.6534 16.1785 13.5057C16.2438 13.358 16.2648 13.1945 16.2389 13.0351C16.2131 12.8757 16.1414 12.7272 16.0327 12.6078C14.9244 11.4653 13.7494 10.2511 13.7494 6.50195C13.7494 5.17587 13.2226 3.9041 12.2849 2.96642C11.3472 2.02874 10.0755 1.50195 8.74939 1.50195C7.42331 1.50195 6.15154 2.02874 5.21386 2.96642C4.27618 3.9041 3.74939 5.17587 3.74939 6.50195C3.74939 10.2511 2.57356 11.4653 1.46772 12.607Z" stroke="black" stroke-width="2" stroke-linecap="round" stroke-linejoin="round"/>
</svg>
