<svg width="100" height="100" viewBox="0 0 100 100" fill="none" xmlns="http://www.w3.org/2000/svg">
<rect x="0.5" y="0.5" width="99" height="99" rx="9.5" stroke="#FDDA60"/>
<path d="M45.725 71.54C45.725 71.07 45.87 70.705 46.16 70.445C46.45 70.185 46.805 70.055 47.225 70.055C47.645 70.055 48 70.185 48.29 70.445C48.58 70.705 48.725 71.07 48.725 71.54V72.605H49.19C49.61 72.605 49.91 72.735 50.09 72.995C50.28 73.245 50.375 73.55 50.375 73.91C50.375 74.27 50.28 74.58 50.09 74.84C49.9 75.09 49.6 75.215 49.19 75.215H48.725V77.765H45.725V71.54ZM38.6 84.14C38.05 84.14 37.625 84.07 37.325 83.93C37.025 83.79 36.81 83.57 36.68 83.27C36.56 82.97 36.5 82.56 36.5 82.04V79.61C36.5 79.14 36.635 78.79 36.905 78.56C37.185 78.32 37.555 78.2 38.015 78.2C38.435 78.2 38.775 78.3 39.035 78.5C39.295 78.7 39.445 79 39.485 79.4H45.83C45.87 79 46.02 78.7 46.28 78.5C46.55 78.3 46.9 78.2 47.33 78.2C47.78 78.2 48.14 78.32 48.41 78.56C48.68 78.79 48.815 79.14 48.815 79.61V84.14H38.6ZM36.53 75.5C37.22 75.4 37.75 75.145 38.12 74.735C38.49 74.325 38.675 73.81 38.675 73.19V72.89H36.785C36.455 72.89 36.19 72.77 35.99 72.53C35.79 72.29 35.69 72.02 35.69 71.72C35.69 71.41 35.785 71.135 35.975 70.895C36.165 70.655 36.435 70.535 36.785 70.535H43.655C44.005 70.535 44.275 70.655 44.465 70.895C44.655 71.135 44.75 71.41 44.75 71.72C44.75 72.02 44.65 72.29 44.45 72.53C44.25 72.77 43.985 72.89 43.655 72.89H41.51V73.19C41.51 73.41 41.495 73.625 41.465 73.835C43.775 73.865 44.9 75.15 44.84 77.69H42.035C42.045 77.63 42.05 77.55 42.05 77.45C42.05 76.98 41.92 76.6 41.66 76.31C41.41 76.01 41.08 75.865 40.67 75.875C40.24 76.475 39.695 76.945 39.035 77.285C38.375 77.625 37.685 77.795 36.965 77.795C36.575 77.795 36.245 77.69 35.975 77.48C35.715 77.26 35.585 76.965 35.585 76.595C35.585 76.295 35.665 76.05 35.825 75.86C35.995 75.66 36.23 75.54 36.53 75.5ZM39.5 81.845C39.5 81.995 39.525 82.09 39.575 82.13C39.625 82.17 39.725 82.19 39.875 82.19H45.815V81.26H39.5V81.845ZM51.185 74.99C51.185 74.52 51.265 74.085 51.425 73.685C51.105 73.665 50.845 73.55 50.645 73.34C50.455 73.13 50.36 72.87 50.36 72.56C50.36 72.24 50.46 71.98 50.66 71.78C50.87 71.57 51.155 71.465 51.515 71.465H53.72C53.74 70.995 53.88 70.63 54.14 70.37C54.41 70.11 54.78 69.98 55.25 69.98C55.72 69.98 56.085 70.11 56.345 70.37C56.605 70.63 56.745 70.995 56.765 71.465H58.955C59.315 71.465 59.595 71.57 59.795 71.78C60.005 71.98 60.11 72.24 60.11 72.56C60.11 72.87 60.01 73.13 59.81 73.34C59.62 73.55 59.365 73.665 59.045 73.685C59.205 74.085 59.285 74.52 59.285 74.99V75.74C59.285 76.68 59.06 77.435 58.61 78.005C58.16 78.575 57.525 78.96 56.705 79.16V81.185H58.865C59.285 81.185 59.6 81.31 59.81 81.56C60.02 81.8 60.125 82.09 60.125 82.43C60.125 82.77 60.02 83.055 59.81 83.285C59.6 83.525 59.285 83.645 58.865 83.645H51.74C51.32 83.645 51.005 83.525 50.795 83.285C50.585 83.055 50.48 82.77 50.48 82.43C50.48 82.09 50.585 81.8 50.795 81.56C51.005 81.31 51.32 81.185 51.74 81.185H53.795V79.16C52.975 78.97 52.335 78.59 51.875 78.02C51.415 77.45 51.185 76.69 51.185 75.74V74.99ZM53.975 75.785C53.975 76.205 54.09 76.525 54.32 76.745C54.56 76.955 54.87 77.06 55.25 77.06C55.62 77.06 55.92 76.955 56.15 76.745C56.39 76.525 56.51 76.205 56.51 75.785V74.87C56.51 74.45 56.39 74.135 56.15 73.925C55.92 73.705 55.62 73.595 55.25 73.595C54.87 73.595 54.56 73.705 54.32 73.925C54.09 74.135 53.975 74.45 53.975 74.87V75.785ZM60.65 71.54C60.65 71.07 60.795 70.705 61.085 70.445C61.375 70.185 61.73 70.055 62.15 70.055C62.57 70.055 62.925 70.185 63.215 70.445C63.505 70.705 63.65 71.07 63.65 71.54V75.305H64.19C64.61 75.305 64.91 75.435 65.09 75.695C65.28 75.945 65.375 76.25 65.375 76.61C65.375 76.97 65.28 77.28 65.09 77.54C64.9 77.79 64.6 77.915 64.19 77.915H63.65V84.14H60.65V71.54Z" fill="#FFC800"/>
</svg>
